Patient4_TMGait_0pt3_03_right_27_EMG.mot
version=1
nRows=13
nColumns=33
inDegrees=no
endheader
time	1LAddLong	2LGlutMax	3LGlutMed	4LIliopsoas	5LSemiMemb	6LBicFemLong	7LRecFem	8LVastMed	9LVastLat	10LGasMed	11LTibAnt	12lTibPost	13LPeroneusLong	14LSol	15LExtDigLong	16LFlexDigLong	17RAddLong	18RGlutMax	19RGlutMed	20RIliopsoas	21RSemiMemb	22RBicFemLong	23RRecFem	24RVastMed	25RVastLat	26RGasMed	27RTibAnt	28RTibPost	29RPeroneusLong	30RSol	31RExtDigLong	32RFlexDigLong
51.085	0.007477	-0.42099	0.042114	-0.009766	0.008545	0.036926	-0.00061	-0.007172	0.055695	0.028687	-0.10147	0.011597	-0.062561	-0.018921	0.10376	0.005798	0.040894	-0.62592	-0.52231	-0.011597	0.056152	-0.27893	-0.005798	-0.023956	-0.34927	0.003357	0.0737	0.009918	-0.06546	-0.084076	-0.005798	-0.005035
51.086	0.014801	-0.39414	0.042114	-0.011292	-0.000916	0.033569	-0.001373	-0.008698	0.051422	0.028687	-0.037079	0.007019	-0.038757	0.027618	0.11124	-0.00351	0.09552	-0.63446	-0.16144	-0.057068	0.13428	-0.25742	0.047913	-0.16922	-0.46799	0.016022	0.45013	0.007782	-0.045624	-0.15549	0.005493	-0.009003
51.087	0.00473	-0.40161	0.029297	0.026245	0.011749	0.049591	-0.007019	-0.002441	0.06485	0.016937	-0.039215	0.018616	-0.000458	-0.009766	0.10239	0.002289	0.13336	-0.51514	0.011139	-0.18753	0.19226	-0.25207	0.11658	-0.31815	-0.48874	0.015564	0.61371	-0.000763	0.12253	-0.20157	-0.003052	-0.002441
51.088	0.005646	-0.38788	0.04776	0.00824	0.022888	-0.005951	-0.013428	-0.00885	0.066376	0.0177	-0.036926	0.00946	0.044403	-0.047607	0.17838	0.011749	0.098114	-0.5014	0.093384	-0.14816	-0.018311	-0.072784	0.054626	-0.2182	-0.24231	-0.000305	-0.057068	-0.006866	0.20996	-0.052795	-0.001678	-0.002441
51.089	-0.003662	-0.39856	0.085297	-0.000458	0.031586	0.040436	-0.01709	-0.005646	0.054016	0.02121	0.15472	0.012054	0.018463	0.030823	0.25101	-0.000305	0.007324	-0.4184	0.20416	-0.083618	-0.38483	0.11231	0.003815	-0.084229	-0.11322	-0.012512	-0.65735	-0.001526	0.078888	0.078278	-0.004272	0.005035
51.09	-0.003815	-0.40115	0.050201	-0.019531	0.006256	0.078278	0.006714	-0.001373	0.064697	0.027161	0.13382	0.007782	-0.026398	0.033569	0.043488	0.00946	-0.016174	-0.37262	0.2829	0.068817	-0.74204	0.28824	0.000916	0.010986	-0.056305	-0.029907	-0.47348	-0.007172	-0.14313	0.016632	-0.009155	-0.001068
51.091	-0.005646	-0.39658	0.036163	-0.007019	0.026398	0.055084	-0.014343	-0.002747	0.078583	0.024414	0.14404	0.010376	-0.056915	0.053101	-0.094757	0.001373	-0.026245	-0.36743	0.23422	0.14847	-0.47287	0.37293	0.019073	0.05188	-0.041504	0.014801	-0.36545	-0.005951	-0.10666	-0.016937	-0.00473	-0.000305
51.092	-0.009613	-0.40787	0.03418	0.007477	0.019073	0.048218	-0.025635	0.000763	0.078888	-0.012665	0.17425	0.009766	-0.021057	0.096741	-0.10834	0.008087	-0.041809	-0.40604	-0.11948	0.17181	0.10788	0.33493	0.003815	0.073242	-0.010834	0.051117	-0.38147	0.007629	0	-0.096741	-0.005035	0.00061
51.093	0.000458	-0.3952	0.048218	0.017395	0.025177	0.099487	-0.01236	-0.008392	0.092621	-0.080261	-0.32364	0.011902	0.20355	0.15259	0.10315	0.009308	-0.052643	-0.38635	-0.29572	0.12466	0.45975	0.11444	0.005646	0.063019	-0.017548	0.032806	-0.12985	-0.002747	0.057373	-0.089569	-0.00412	0.003204
51.094	-0.000458	-0.41199	0.066681	0.023193	0.037537	0.069122	-0.014496	-0.009308	0.07843	0.014191	-0.092316	0.009918	0.095825	0.09613	0.65582	0.007172	-0.02533	-0.44891	-0.31754	0.055542	0.36987	-0.018311	0.037537	0.002441	-0.028992	0.014496	0.076599	-0.001068	0.17868	-0.036011	-0.004578	-0.011444
51.095	0.00473	-0.3717	0.071106	0.020142	0.025787	-0.005951	-0.01236	0.002441	0.07431	0.065002	-0.027161	0.005341	-0.055695	0.032806	0.71655	-0.00824	0.031433	-0.50186	-0.2034	0.036316	0.071106	-0.16693	0.028839	-0.059357	-0.038605	-0.029297	0.061798	-0.007782	0.1564	0.049896	-0.007935	-0.004425
51.096	0	-0.33569	0.059357	0.028839	0.005035	0.000763	-0.010834	-0.012665	0.068665	-0.003967	0.094147	0.005646	-0.018005	0.028687	-0.092621	-0.001221	0.024872	-0.5127	0	-0.001678	0.016785	-0.31799	0.023956	-0.027924	-0.021667	-0.047455	0.013275	-0.013733	0.093536	0.16937	-0.009613	-0.001068
51.097	0.00061	-0.31082	0.066223	0.009308	-0.019989	0.015717	0.010071	-0.003052	0.062103	-0.034485	0.17303	0.018463	0.060577	0.041046	-0.46051	0.009308	0.020905	-0.42694	0.35584	-0.012054	-0.075073	-0.28107	-0.014343	0.01358	0.006714	-0.053558	0.00061	-0.019531	0.089722	0.34775	-0.005646	-0.002441
